<svg width="116" height="36" viewBox="0 0 116 36" fill="none" xmlns="http://www.w3.org/2000/svg">
<path d="M46.1525 28V7.63636H50.4579V24.4503H59.188V28H46.1525ZM69.7003 28.2983C68.1558 28.2983 66.82 27.9702 65.6932 27.3139C64.5729 26.651 63.7078 25.7296 63.098 24.5497C62.4881 23.3632 62.1832 21.9877 62.1832 20.4233C62.1832 18.8456 62.4881 17.4669 63.098 16.2869C63.7078 15.1004 64.5729 14.179 65.6932 13.5227C66.82 12.8598 68.1558 12.5284 69.7003 12.5284C71.2448 12.5284 72.5772 12.8598 73.6974 13.5227C74.8243 14.179 75.6927 15.1004 76.3025 16.2869C76.9124 17.4669 77.2173 18.8456 77.2173 20.4233C77.2173 21.9877 76.9124 23.3632 76.3025 24.5497C75.6927 25.7296 74.8243 26.651 73.6974 27.3139C72.5772 27.9702 71.2448 28.2983 69.7003 28.2983ZM69.7201 25.017C70.4228 25.017 71.0094 24.8182 71.4801 24.4205C71.9507 24.0161 72.3054 23.4659 72.544 22.7699C72.7893 22.0739 72.9119 21.2817 72.9119 20.3935C72.9119 19.5052 72.7893 18.7131 72.544 18.017C72.3054 17.321 71.9507 16.7708 71.4801 16.3665C71.0094 15.9621 70.4228 15.7599 69.7201 15.7599C69.0109 15.7599 68.4143 15.9621 67.9304 16.3665C67.4531 16.7708 67.0918 17.321 66.8466 18.017C66.6079 18.7131 66.4886 19.5052 66.4886 20.3935C66.4886 21.2817 66.6079 22.0739 66.8466 22.7699C67.0918 23.4659 67.4531 24.0161 67.9304 24.4205C68.4143 24.8182 69.0109 25.017 69.7201 25.017ZM87.6922 34.0455C86.3201 34.0455 85.1435 33.8565 84.1624 33.4787C83.188 33.1075 82.4124 32.6004 81.8357 31.9574C81.259 31.3144 80.8845 30.5919 80.7121 29.7898L84.6297 29.2628C84.7491 29.5677 84.938 29.8527 85.1965 30.1179C85.455 30.383 85.7964 30.5952 86.2207 30.7543C86.6515 30.92 87.1752 31.0028 87.7917 31.0028C88.7131 31.0028 89.4721 30.7775 90.0687 30.3267C90.6719 29.8826 90.9735 29.1368 90.9735 28.0895V25.2955H90.7945C90.6089 25.7197 90.3305 26.1207 89.9593 26.4986C89.5881 26.8764 89.1108 27.1847 88.5275 27.4233C87.9441 27.6619 87.2481 27.7812 86.4394 27.7812C85.2926 27.7812 84.2486 27.5161 83.3073 26.9858C82.3726 26.4489 81.6269 25.6302 81.0701 24.5298C80.5199 23.4228 80.2448 22.0241 80.2448 20.3338C80.2448 18.6037 80.5265 17.1586 81.09 15.9986C81.6534 14.8385 82.4025 13.9702 83.3371 13.3935C84.2784 12.8168 85.3092 12.5284 86.4295 12.5284C87.2846 12.5284 88.0005 12.6742 88.5772 12.9659C89.1539 13.2509 89.6179 13.6089 89.9692 14.0398C90.3272 14.464 90.6023 14.8816 90.7945 15.2926H90.9536V12.7273H95.1596V28.1491C95.1596 29.4484 94.8414 30.5355 94.205 31.4105C93.5687 32.2855 92.687 32.9418 91.5601 33.3793C90.4399 33.8234 89.1506 34.0455 87.6922 34.0455ZM87.7817 24.5994C88.4645 24.5994 89.0412 24.4304 89.5118 24.0923C89.9891 23.7476 90.3537 23.2571 90.6056 22.6207C90.8641 21.9777 90.9934 21.2088 90.9934 20.3139C90.9934 19.419 90.8674 18.6435 90.6155 17.9872C90.3636 17.3243 89.9991 16.8106 89.5218 16.446C89.0445 16.0814 88.4645 15.8991 87.7817 15.8991C87.0857 15.8991 86.4991 16.0881 86.0218 16.4659C85.5445 16.8371 85.1833 17.3542 84.938 18.017C84.6927 18.6799 84.5701 19.4455 84.5701 20.3139C84.5701 21.1955 84.6927 21.9579 84.938 22.6009C85.1899 23.2372 85.5511 23.7311 86.0218 24.0824C86.4991 24.4271 87.0857 24.5994 87.7817 24.5994ZM106.271 28.2983C104.726 28.2983 103.391 27.9702 102.264 27.3139C101.144 26.651 100.278 25.7296 99.6686 24.5497C99.0588 23.3632 98.7538 21.9877 98.7538 20.4233C98.7538 18.8456 99.0588 17.4669 99.6686 16.2869C100.278 15.1004 101.144 14.179 102.264 13.5227C103.391 12.8598 104.726 12.5284 106.271 12.5284C107.815 12.5284 109.148 12.8598 110.268 13.5227C111.395 14.179 112.263 15.1004 112.873 16.2869C113.483 17.4669 113.788 18.8456 113.788 20.4233C113.788 21.9877 113.483 23.3632 112.873 24.5497C112.263 25.7296 111.395 26.651 110.268 27.3139C109.148 27.9702 107.815 28.2983 106.271 28.2983ZM106.291 25.017C106.993 25.017 107.58 24.8182 108.051 24.4205C108.521 24.0161 108.876 23.4659 109.115 22.7699C109.36 22.0739 109.483 21.2817 109.483 20.3935C109.483 19.5052 109.36 18.7131 109.115 18.017C108.876 17.321 108.521 16.7708 108.051 16.3665C107.58 15.9621 106.993 15.7599 106.291 15.7599C105.581 15.7599 104.985 15.9621 104.501 16.3665C104.024 16.7708 103.662 17.321 103.417 18.017C103.179 18.7131 103.059 19.5052 103.059 20.3935C103.059 21.2817 103.179 22.0739 103.417 22.7699C103.662 23.4659 104.024 24.0161 104.501 24.4205C104.985 24.8182 105.581 25.017 106.291 25.017Z" fill="#314459" fill-opacity="0.99"/>
<path d="M27 4.5H9C7.80653 4.5 6.66193 4.97411 5.81802 5.81802C4.97411 6.66193 4.5 7.80653 4.5 9V27C4.5 28.1935 4.97411 29.3381 5.81802 30.182C6.66193 31.0259 7.80653 31.5 9 31.5H27C28.1935 31.5 29.3381 31.0259 30.182 30.182C31.0259 29.3381 31.5 28.1935 31.5 27V9C31.5 7.80653 31.0259 6.66193 30.182 5.81802C29.3381 4.97411 28.1935 4.5 27 4.5ZM9 7.5H27C27.3978 7.5 27.7794 7.65804 28.0607 7.93934C28.342 8.22064 28.5 8.60218 28.5 9V21.54L23.7 17.445C22.9563 16.8331 22.0231 16.4985 21.06 16.4985C20.0969 16.4985 19.1637 16.8331 18.42 17.445L7.5 26.55V9C7.5 8.60218 7.65804 8.22064 7.93934 7.93934C8.22064 7.65804 8.60218 7.5 9 7.5ZM27 28.5H9.84L20.34 19.74C20.5417 19.5902 20.7863 19.5094 21.0375 19.5094C21.2887 19.5094 21.5333 19.5902 21.735 19.74L28.5 25.5V27C28.5 27.3978 28.342 27.7794 28.0607 28.0607C27.7794 28.342 27.3978 28.5 27 28.5Z" fill="#314459" fill-opacity="0.99"/>
<path d="M12 15C13.2426 15 14.25 13.9926 14.25 12.75C14.25 11.5074 13.2426 10.5 12 10.5C10.7574 10.5 9.75 11.5074 9.75 12.75C9.75 13.9926 10.7574 15 12 15Z" fill="#314459" fill-opacity="0.99"/>
</svg>
